<svg id="Layer_1" data-name="Layer 1" xmlns="http://www.w3.org/2000/svg" viewBox="0 0 216.61 70.98"><defs><style>.cls-1{fill:#f8ff2c;}.cls-2,.cls-3{fill:#fff;}.cls-2{fill-rule:evenodd;}</style></defs><path class="cls-1" d="M34.09,9.28V26.61a3.59,3.59,0,0,1-3.54,3.64,3.67,3.67,0,0,1-1.72-.42L11.7,20.64a24.29,24.29,0,0,1,4.86-5.78L30,27.45a.94.94,0,0,0,1.54-1L26.3,9.82a23.68,23.68,0,0,1,5.49-.65A16.18,16.18,0,0,1,34.09,9.28Z"/><path class="cls-1" d="M29.44,56.68V39.44a3.59,3.59,0,0,1,5.26-3.21l17.14,9.19A23.44,23.44,0,0,1,47,51.17L33.53,38.6a1,1,0,0,0-1.38.28,1,1,0,0,0-.16.72l5.19,16.57a23.28,23.28,0,0,1-7.74.51Z"/><path class="cls-1" d="M37.3,31.24,49.71,17.58A23.84,23.84,0,0,0,44,12.64L34.92,30.06A3.64,3.64,0,0,0,36.43,35a3.56,3.56,0,0,0,1.66.42H55.17c.07-.78.11-1.58.11-2.39a23.56,23.56,0,0,0-.62-5.48L38.24,32.8a1,1,0,0,1-1.11-.87A1.11,1.11,0,0,1,37.3,31.24Z"/><path class="cls-1" d="M8.41,30.67h17A3.64,3.64,0,0,1,29,34.34,3.57,3.57,0,0,1,28.58,36l-9,17.33a23.42,23.42,0,0,1-5.68-4.92L26.3,34.82a1,1,0,0,0-1-1.57L8.94,38.52A24.44,24.44,0,0,1,8.3,33,16,16,0,0,1,8.41,30.67Z"/><path class="cls-2" d="M83.3,14.17H88l15.74,37.69H98.56l-4.85-12H77.6L73,51.86H68Zm2.2,6L79.42,35.42H91.85Z"/><path class="cls-2" d="M134.63,38.67c0-8,5.48-13.89,13-13.89s13.07,5.84,13.07,13.89-5.5,13.89-13.07,13.89S134.63,46.72,134.63,38.67Zm4.93,0c0,6.06,3.1,9.82,8.09,9.82s8.14-3.76,8.14-9.82-3.12-9.81-8.14-9.81S139.56,32.62,139.56,38.67Z"/><path class="cls-2" d="M195.3,24.78c-7.58,0-13.08,5.84-13.08,13.89s5.5,13.89,13.08,13.89,13-5.84,13-13.89S202.83,24.78,195.3,24.78Zm0,23.71c-5,0-8.15-3.76-8.15-9.82s3.15-9.81,8.15-9.81,8.08,3.76,8.08,9.81S200.3,48.49,195.3,48.49Z"/><path class="cls-3" d="M169.1,51.86h-4.8V14.17h4.76Z"/><path class="cls-3" d="M173.84,51.86h4.75V14.17h-4.75Z"/><path class="cls-2" d="M119.73,52.56a10.23,10.23,0,0,1-8.43-4.23V61.8h-4.81V25.48h4.81v3.58a10.26,10.26,0,0,1,8.48-4.28c7.24,0,12.11,5.58,12.11,13.89S127,52.56,119.73,52.56ZM119.3,29c-4.87,0-8.24,3.68-8.24,9v1.48c0,5.28,3.37,9,8.24,9s7.63-3.63,7.63-9.7S124.05,29,119.3,29Z"/></svg>