<svg width="189" height="41" viewBox="0 0 189 41" fill="none" xmlns="http://www.w3.org/2000/svg">
<path d="M0 5.20911C0 2.42928 2.25351 0.175781 5.03333 0.175781H34.9666C37.7465 0.175781 40 2.42928 40 5.20911V35.1425C40 37.9223 37.7465 40.1758 34.9666 40.1758H5.03333C2.25351 40.1758 0 37.9223 0 35.1425V5.20911Z" fill="#6E58F1"/>
<path d="M5.77344 17.095C5.77344 13.6447 8.55981 10.8477 11.997 10.8477H12.3549C13.8089 10.8477 14.9875 12.0308 14.9875 13.4903V20.6997C14.9875 22.1593 13.8089 23.3423 12.3549 23.3423H11.997C8.55981 23.3423 5.77344 20.5454 5.77344 17.095Z" fill="white"/>
<path d="M16.4062 11.9526C16.4062 11.2826 16.7982 10.675 17.4074 10.4011L26.467 6.32634C27.5876 5.82235 28.8533 6.64534 28.8533 7.87791V26.4506C28.8533 27.6911 27.5726 28.5141 26.4505 27.9946L17.3908 23.8018C16.7906 23.5241 16.4062 22.9211 16.4062 22.2578V21.3979C16.4062 20.6906 16.8425 20.0571 17.5018 19.8073L22.5513 17.8941C23.2817 17.6173 23.2817 16.5802 22.5513 16.3034L17.5018 14.3902C16.8425 14.1403 16.4062 13.5069 16.4062 12.7995V11.9526Z" fill="white"/>
<path d="M34.2182 18.5853V18.2067C34.2182 16.1156 32.5295 14.4204 30.4465 14.4204C30.3422 14.4204 30.2578 14.5051 30.2578 14.6097V22.1823C30.2578 22.2868 30.3422 22.3716 30.4465 22.3716C32.5295 22.3716 34.2182 20.6764 34.2182 18.5853Z" fill="white"/>
<path d="M11.9922 25.7605C11.9922 25.3887 12.2924 25.0874 12.6627 25.0874H16.1711C16.5415 25.0874 16.8417 25.3887 16.8417 25.7605V31.7405C16.8417 33.0847 15.7561 34.1745 14.417 34.1745C13.0778 34.1745 11.9922 33.0847 11.9922 31.7405V25.7605Z" fill="white"/>
<path d="M59.0924 21.1679C60.7589 21.3547 61.6849 22.2186 61.6849 23.6194C61.6849 24.7399 60.7589 25.6971 59.5785 25.6971C58.56 25.6971 57.7499 25.4403 56.9628 24.4365L54 26.631C55.6435 28.4521 57.6109 29.1758 59.5785 29.1758C62.6108 29.1758 65.4116 26.7478 65.4116 23.3626C65.4116 20.0007 62.9811 17.9929 60.0415 17.8061C58.2128 17.6894 57.6341 16.9657 57.6341 16.1719C57.6341 15.2147 58.2823 14.631 59.2313 14.631C59.8331 14.631 60.5969 15.0046 61.0599 15.4949L63.8839 13.417C62.5645 11.8295 60.9441 11.1758 59.2313 11.1758C56.8471 11.1758 54.162 13.2536 54.162 16.1953C54.162 18.9267 56.1064 20.8178 59.0924 21.1679Z" fill="white"/>
<path d="M78.7319 22.9891C78.7319 21.425 79.8198 20.1409 81.255 20.1409C82.5743 20.1409 83.6622 21.1915 83.6622 22.9891V28.8725H86.926V22.9891C86.926 19.5806 85.1899 16.8257 81.6022 16.8257C80.3984 16.8257 78.5467 17.1993 77.4356 18.6934C76.7412 17.6195 75.1903 16.8257 73.4775 16.8257C72.459 16.8257 71.1396 17.246 70.6072 17.8997V17.0825H67.3203V28.8725H70.6072V22.9891C70.6072 21.425 71.6951 20.1409 72.9219 20.1409C74.4034 20.1409 75.445 20.9581 75.445 22.9891V28.8725H78.7319V22.9891Z" fill="white"/>
<path d="M97.1892 17.0825V17.8997C96.68 17.3393 95.3837 16.8257 94.3421 16.8257C91.2172 16.8257 88.6016 19.5806 88.6016 22.9891C88.6016 26.351 91.1477 29.1293 94.3421 29.1293C95.4068 29.1293 96.68 28.709 97.1892 28.0319V28.8725H100.476V17.0825H97.1892ZM94.6661 25.8374C93.1616 25.8374 91.9348 24.6701 91.9348 22.9891C91.9348 21.3315 93.1616 20.1409 94.6661 20.1409C96.1938 20.1409 97.3281 21.3315 97.3281 22.9891C97.3281 24.6701 96.1938 25.8374 94.6661 25.8374Z" fill="white"/>
<path d="M109.479 16.8725C109.178 16.8257 108.946 16.8257 108.669 16.8257C107.766 16.8257 106.794 17.1293 106.076 17.8997V17.0825H102.789V28.8725H106.076V22.9891C106.076 21.0981 107.164 20.1409 108.437 20.1409C108.807 20.1409 109.155 20.1875 109.479 20.3043V16.8725Z" fill="white"/>
<path d="M117.785 20.1406V17.0822H115.007V13.1367L111.72 15.5414V17.0822H109.961V20.1406H111.72V23.9927C111.72 27.0511 114.22 29.129 117.715 29.129V25.8371C116.211 25.8371 115.007 25.23 115.007 23.8994V20.1406H117.785Z" fill="white"/>
<path d="M119.289 11.479V28.872H122.576V11.479H119.289Z" fill="white"/>
<path d="M133.28 24.6467C132.747 25.4871 131.752 25.8374 130.756 25.8374C130.409 25.8374 130.085 25.8141 129.784 25.6973L136.312 20.9814C135.594 18.7869 133.372 16.8257 130.479 16.8257C127.122 16.8257 124.414 19.5806 124.414 22.9891C124.414 26.351 127.238 29.1293 130.756 29.1293C132.84 29.1293 134.9 28.1721 135.896 26.6778L133.28 24.6467ZM127.747 22.9891C127.747 21.3315 128.974 20.1409 130.479 20.1409C131.104 20.1409 131.636 20.351 132.099 20.7013L127.84 23.7595C127.77 23.5261 127.747 23.2693 127.747 22.9891Z" fill="white"/>
<path d="M146.065 17.0825V17.8997C145.555 17.3393 144.259 16.8257 143.217 16.8257C140.093 16.8257 137.477 19.5806 137.477 22.9891C137.477 26.351 140.023 29.1293 143.217 29.1293C144.282 29.1293 145.555 28.709 146.065 28.0319V28.8725H149.351V17.0825H146.065ZM143.541 25.8374C142.037 25.8374 140.81 24.6701 140.81 22.9891C140.81 21.3315 142.037 20.1409 143.541 20.1409C145.069 20.1409 146.203 21.3315 146.203 22.9891C146.203 24.6701 145.069 25.8374 143.541 25.8374Z" fill="white"/>
<path d="M159.768 11.479V17.8993C159.258 17.3389 157.962 16.8253 156.92 16.8253C153.796 16.8253 151.18 19.5802 151.18 22.9887C151.18 26.3506 153.726 29.1288 156.92 29.1288C157.985 29.1288 159.258 28.7086 159.768 28.0315V28.872H163.054V11.479H159.768ZM157.244 25.837C155.74 25.837 154.513 24.6696 154.513 22.9887C154.513 21.3311 155.74 20.1405 157.244 20.1405C158.772 20.1405 159.906 21.3311 159.906 22.9887C159.906 24.6696 158.772 25.837 157.244 25.837Z" fill="white"/>
<path d="M167.376 25.6035C166.311 25.6035 165.594 26.3972 165.594 27.4011C165.594 28.3583 166.311 29.1755 167.376 29.1755C168.464 29.1755 169.158 28.3583 169.158 27.4011C169.158 26.3972 168.44 25.6035 167.376 25.6035Z" fill="white"/>
<path d="M179.813 17.0825V17.8997C179.304 17.3393 178.008 16.8257 176.967 16.8257C173.841 16.8257 171.227 19.5806 171.227 22.9891C171.227 26.351 173.772 29.1293 176.967 29.1293C178.032 29.1293 179.304 28.709 179.813 28.0319V28.8725H183.101V17.0825H179.813ZM177.291 25.8374C175.787 25.8374 174.56 24.6701 174.56 22.9891C174.56 21.3315 175.787 20.1409 177.291 20.1409C178.819 20.1409 179.953 21.3315 179.953 22.9891C179.953 24.6701 178.819 25.8374 177.291 25.8374Z" fill="white"/>
<path d="M187.03 15.0046C188.142 15.0046 188.998 14.1407 188.998 13.1135C188.998 12.1563 188.142 11.2925 187.03 11.2925C186.013 11.2925 185.133 12.1796 185.133 13.1135C185.133 14.1407 186.013 15.0046 187.03 15.0046ZM188.697 17.0823H185.41V28.8723H188.697V17.0823Z" fill="white"/>
</svg>
